<svg width="67" height="54" viewBox="0 0 67 54" fill="none" xmlns="http://www.w3.org/2000/svg">
<path d="M8.73341 44L6.42162 33.5114L1.79805 12.5341H5.30854L9.63243 33.5114C9.80368 34.3961 9.97492 35.2951 10.1462 36.2084C10.3459 37.0932 10.5315 37.9779 10.7027 38.8627C10.8739 37.9779 11.0452 37.0932 11.2164 36.2084C11.4162 35.2951 11.6017 34.3961 11.773 33.5114L16.0969 12.5341H19.6074L14.9838 33.5114L12.672 44H8.73341Z" fill="#E23636"/>
<path d="M47.4021 44V12.5341H50.8269V26.9613L59.5175 12.5341H63.4133L54.7655 26.7901L63.4133 44H59.646L52.7106 30.1721L50.8269 33.2973V44H47.4021Z" fill="#E23636"/>
<path d="M15.4897 26.7137C15.4897 25.6291 15.6324 24.5589 15.9178 23.5029C16.2032 22.4469 16.7027 21.505 17.4162 20.6774C18.1582 19.8497 19.043 19.2218 20.0705 18.7937C22.04 18.0277 24.1734 18.8285 25.9223 20.0148L26.2994 20.2707L29.3604 22.347L23.3669 21.6192L23.2813 21.6192C22.4251 21.6192 21.5974 21.8333 20.7982 22.2614C19.9991 22.718 19.4283 23.3459 19.0858 24.145C18.7433 24.9727 18.5721 25.8289 18.5721 26.7137C18.5721 27.5984 18.7719 28.4547 19.1714 29.2823C19.571 30.1386 20.1846 30.7807 21.0123 31.2088C21.84 31.6369 22.7105 31.851 23.6238 31.851C24.6512 31.851 25.6216 31.5513 26.5349 30.952C27.4482 30.3526 28.1617 29.5963 28.6754 28.683C29.2177 27.7697 29.7172 26.8421 30.1738 25.9003C30.6305 24.9584 31.1442 24.0451 31.715 23.1604C32.2858 22.3042 32.9708 21.5193 33.7699 20.8058C34.5691 20.1208 35.4538 19.5786 36.4242 19.179C37.4231 18.808 38.4506 18.6224 39.5066 18.6224C40.5911 18.6224 41.6471 18.808 42.6746 19.179C43.7306 19.55 44.6581 20.1208 45.4573 20.8914C46.2564 21.662 46.8129 22.561 47.1269 23.5885C47.4694 24.6445 47.6406 25.7148 47.6406 26.7993C47.6406 27.8838 47.4837 28.9398 47.1697 29.9673C46.8843 30.9948 46.3706 31.8938 45.6285 32.6644C44.8865 33.4635 44.0017 34.0486 42.9742 34.4196C41.0535 35.133 38.9933 34.3415 37.3198 33.1595L33.7699 30.6523L39.7634 31.5513L39.8491 31.5513C40.6767 31.5513 41.4759 31.3658 42.2465 30.9948C43.0456 30.6237 43.6307 30.0387 44.0017 29.2395C44.3727 28.4689 44.5582 27.6555 44.5582 26.7993C44.5582 26.1714 44.4441 25.5435 44.2158 24.9156C44.016 24.2877 43.6592 23.7455 43.1455 23.2888C42.6603 22.8607 42.1038 22.5468 41.4759 22.347C40.848 22.1472 40.2058 22.0473 39.5494 22.0473C38.4934 22.0473 37.5087 22.3327 36.5954 22.9035C35.6821 23.5029 34.9544 24.2592 34.4121 25.1725C33.8984 26.0858 33.4132 27.0134 32.9565 27.9552C32.5284 28.897 32.0147 29.7961 31.4153 30.6523C30.8445 31.537 30.1595 32.3219 29.3604 33.0069C28.5898 33.7204 27.7051 34.2627 26.7061 34.6337C25.7072 35.0333 24.694 35.233 23.6666 35.233C22.5535 35.233 21.4547 35.0333 20.3701 34.6337C19.3141 34.2627 18.3866 33.6633 17.5874 32.8356C16.8168 32.0365 16.2746 31.0947 15.9606 30.0101C15.6467 28.9256 15.4897 27.8268 15.4897 26.7137Z" fill="#E23636"/>
</svg>
